<svg id="logo" xmlns="http://www.w3.org/2000/svg" width="238" height="70" viewBox="0 0 238 70">
  <g id="Group_174233" data-name="Group 174233" transform="translate(95.525 0)">
    <g id="Group_174244" data-name="Group 174244">
      <path id="Path_38544" data-name="Path 38544" d="M216.067,114.121l-5.278,5.811v14.379H200.637V83.977h10.152v22.816l4.466-6.256,12.554-16.561H240.3l-17.494,22.367,18,27.967H228.726l-12.659-20.189" transform="translate(-176.538 -74.145)" fill="#efefef"/>
      <path id="Path_38545" data-name="Path 38545" d="M273.3,112.5H253.806V125.98h22.874v8.33H243.654V83.977h32.962v8.4h-22.81v11.994H273.3V112.5" transform="translate(-177.465 -74.145)" fill="#efefef"/>
      <path id="Path_38546" data-name="Path 38546" d="M289.53,125.98h21.557v8.33H279.379V83.977H289.53v42" transform="translate(-178.234 -74.145)" fill="#efefef"/>
      <path id="Path_38547" data-name="Path 38547" d="M310.784,144.145a7.788,7.788,0,0,0,7.7-7.866h0V82.012a7.787,7.787,0,0,0-7.7-7.867H176.008l23.1,7.867H308.861a1.944,1.944,0,0,1,1.923,1.965h0V134.31a1.948,1.948,0,0,1-1.923,1.969H227.985l-23.1,7.866Z" transform="translate(-176.008 -74.145)" fill="#efefef"/>
    </g>
  </g>
  <g id="Group_174234" data-name="Group 174234" transform="translate(0 0)">
    <g id="Group_174245" data-name="Group 174245">
      <path id="Path_38548" data-name="Path 38548" d="M176.378,106.654l10.251-22.678h11.1l-16.173,32.084v18.25H171.234v-18.25L155.059,83.977h11.134l10.186,22.678" transform="translate(-80.032 -74.145)" fill="#00477b"/>
      <path id="Path_38549" data-name="Path 38549" d="M149.043,83.977h-9.406L121.3,134.31H132.09l3.385-10.37h17.8l3.417,10.37h10.8Zm-10.828,31.564L144.343,96.7l6.192,18.844Z" transform="translate(-79.305 -74.145)" fill="#00477b"/>
      <path id="Path_38550" data-name="Path 38550" d="M118.446,134.31H108.295L88.533,101.193V134.31a1.95,1.95,0,0,0,1.925,1.969H225.883l-23.1,7.866H86.082a7.787,7.787,0,0,1-7.7-7.866h0v-52.3H88.533l19.8,33.187V82.012a7.788,7.788,0,0,1,7.7-7.867h57.875l23.1,7.867H120.373a1.947,1.947,0,0,0-1.927,1.965h0Z" transform="translate(-78.381 -74.145)" fill="#00477b"/>
    </g>
  </g>
</svg>
